<svg width="480" height="200" viewBox="0 0 480 200" fill="none" xmlns="http://www.w3.org/2000/svg">
  <defs>
    <linearGradient id="sky" x1="0" y1="0" x2="0" y2="1">
      <stop offset="0%" stop-color="#d6eaf8"/><stop offset="100%" stop-color="#85c1e9"/>
    </linearGradient>
    <linearGradient id="panel" x1="0" y1="0" x2="0" y2="1">
      <stop offset="0%" stop-color="#2c3e50"/><stop offset="100%" stop-color="#1a252f"/>
    </linearGradient>
  </defs>
  <rect width="480" height="200" rx="12" fill="#eaf2f8"/>
  <rect x="8" y="8" width="464" height="184" rx="10" fill="url(#sky)"/>
  <circle cx="390" cy="42" r="22" fill="#fdeaa8"/><circle cx="390" cy="42" r="12" fill="#f7c948"/>
  <path d="M120 60L160 42L170 48L132 64Z" fill="#fff" fill-opacity="0.85"/>
  <path d="M120 60L80 48L76 55L115 66Z" fill="#d6eaf8"/>
  <path d="M20 120Q120 90 240 95Q360 100 460 120V192H20Z" fill="url(#panel)"/>
  <circle cx="100" cy="148" r="22" fill="#34495e"/><circle cx="100" cy="148" r="14" fill="#1a252f"/>
  <line x1="100" y1="148" x2="100" y2="136" stroke="#5dade2" stroke-width="1.5" stroke-linecap="round"/>
  <text x="87" y="174" font-size="7" fill="#85c1e9" font-family="monospace">ASI</text>
  <rect x="190" y="128" width="100" height="42" rx="6" fill="#34495e"/>
  <rect x="198" y="134" width="84" height="30" rx="4" fill="#1a252f"/>
  <text x="214" y="154" font-size="8" fill="#5dade2" font-family="monospace">ALT 5200</text>
  <circle cx="380" cy="148" r="22" fill="#34495e"/><circle cx="380" cy="148" r="14" fill="#1a252f"/>
  <path d="M380 136V142" stroke="#5dade2" stroke-width="1.2"/><path d="M380 154V160" stroke="#5dade2" stroke-width="1.2"/>
  <text x="367" y="174" font-size="7" fill="#85c1e9" font-family="monospace">VSI</text>
</svg>
