<svg width="480" height="200" viewBox="0 0 480 200" fill="none" xmlns="http://www.w3.org/2000/svg">
  <rect width="480" height="200" rx="12" fill="#eaf2f8"/>
  <path d="M40 105C120 65 280 58 440 95L435 115C290 88 140 92 50 135Z" fill="#5dade2" fill-opacity="0.7"/>
  <path d="M50 100C135 65 290 60 435 92" stroke="#2874a6" stroke-width="2"/>
  <path d="M55 130C140 100 300 95 430 118" stroke="#2874a6" stroke-width="1.5" stroke-opacity="0.5"/>
  <path d="M60 48C130 30 240 22 340 32C400 38 440 48 460 58" stroke="#3498db" stroke-width="1.5" stroke-dasharray="5 5" fill="none"/>
  <path d="M65 155C150 142 280 138 390 150C430 155 450 160 465 168" stroke="#f39c12" stroke-width="1.5" stroke-dasharray="5 5" fill="none"/>
  <path d="M230 18L245 42L215 42Z" fill="#3498db"/>
  <path d="M230 182L215 158L245 158Z" fill="#f39c12"/>
  <text x="254" y="38" font-size="11" font-family="'DM Sans',sans-serif" fill="#2874a6" font-weight="600">Low pressure — faster flow</text>
  <text x="254" y="170" font-size="11" font-family="'DM Sans',sans-serif" fill="#d68910" font-weight="600">Higher pressure — slower flow</text>
</svg>
